<?xml version="1.0" encoding="UTF-8" standalone="no"?>
<svg width="21px" height="21px" viewBox="0 0 21 21" version="1.1" xmlns="http://www.w3.org/2000/svg" xmlns:xlink="http://www.w3.org/1999/xlink">
    <!-- Generator: Sketch 45.2 (43514) - http://www.bohemiancoding.com/sketch -->
    <title>Group</title>
    <desc>Created with Sketch.</desc>
    <defs></defs>
    <g id="Page-1" stroke="none" stroke-width="1" fill="none" fill-rule="evenodd">
        <g id="iStock-940403734" transform="translate(-348.000000, -134.000000)" fill="#3A3B3A">
            <g id="Group" transform="translate(348.000000, 134.000000)">
                <path d="M13.6035375,13.7878125 C13.5345,13.8445125 11.9461125,15.1722375 11.8883625,16.752225 L8.4217875,16.752225 C8.3645625,15.2817 6.889575,13.947675 6.715275,13.795425 C5.6146125,12.8480625 4.9835625,11.4888375 4.9835625,10.06635 C4.9835625,7.3119375 7.303275,5.070975 10.15455,5.070975 C13.0060875,5.070975 15.3260625,7.3119375 15.3260625,10.06635 C15.3260625,11.488575 14.6950125,12.8480625 13.6035375,13.7878125 Z M10.15455,4.020975 C6.7244625,4.020975 3.9335625,6.7328625 3.9335625,10.06635 C3.9335625,11.7949125 4.6977,13.4442 6.0267375,14.5884375 C6.3900375,14.907375 7.31115,15.897 7.371525,16.752225 L7.3479,16.752225 C7.0578375,16.752225 6.8229,16.9871625 6.8229,17.277225 C6.8229,17.567025 7.0578375,17.802225 7.3479,17.802225 L12.9619875,17.802225 C13.25205,17.802225 13.4869875,17.567025 13.4869875,17.277225 C13.4869875,16.9871625 13.25205,16.752225 12.9619875,16.752225 L12.9383625,16.752225 C12.995325,15.84765 13.9106625,14.8966125 14.279475,14.591325 C15.611925,13.4439375 16.3760625,11.79465 16.3760625,10.06635 C16.3760625,6.7328625 13.5851625,4.020975 10.15455,4.020975 L10.15455,4.020975 Z" id="Fill-44"></path>
                <path d="M9.0407625,6.4761375 C7.6085625,6.9313125 6.489525,8.1183375 6.12045,9.5739 C6.04905,9.8550375 6.21915,10.1409 6.5002875,10.2120375 C6.5436,10.2230625 6.5869125,10.2283125 6.6294375,10.2283125 C6.8641125,10.2283125 7.0777875,10.0697625 7.1381625,9.8322 C7.418775,8.7255 8.2695375,7.8227625 9.35865,7.4767875 C9.6350625,7.38885 9.7878375,7.0938 9.7001625,6.8173875 C9.6119625,6.540975 9.3158625,6.388725 9.0407625,6.4761375" id="Fill-45"></path>
                <path d="M12.9619875,18.3290625 L7.3479,18.3290625 C7.0578375,18.3290625 6.8229,18.5642625 6.8229,18.8540625 C6.8229,19.144125 7.0578375,19.3790625 7.3479,19.3790625 L12.9619875,19.3790625 C13.25205,19.3790625 13.4869875,19.144125 13.4869875,18.8540625 C13.4869875,18.5642625 13.25205,18.3290625 12.9619875,18.3290625" id="Fill-46"></path>
                <path d="M11.754225,19.9061625 L8.5554,19.9061625 C8.2656,19.9061625 8.0304,20.1411 8.0304,20.4311625 C8.0304,20.7209625 8.2656,20.9561625 8.5554,20.9561625 L11.754225,20.9561625 C12.044025,20.9561625 12.279225,20.7209625 12.279225,20.4311625 C12.279225,20.1411 12.044025,19.9061625 11.754225,19.9061625" id="Fill-47"></path>
                <path d="M10.1548125,3.0387 C10.444875,3.0387 10.6798125,2.8035 10.6798125,2.5137 L10.6798125,0.6281625 C10.6798125,0.3383625 10.444875,0.1031625 10.1548125,0.1031625 C9.8650125,0.1031625 9.6298125,0.3383625 9.6298125,0.6281625 L9.6298125,2.5137 C9.6298125,2.8035 9.8650125,3.0387 10.1548125,3.0387" id="Fill-48"></path>
                <path d="M4.3693125,5.127675 C4.47195,5.23005 4.6060875,5.2815 4.7404875,5.2815 C4.8748875,5.2815 5.0092875,5.23005 5.1116625,5.127675 C5.316675,4.9226625 5.316675,4.590075 5.1116625,4.3850625 L3.778425,3.0520875 C3.5734125,2.847075 3.2410875,2.8468125 3.036075,3.0520875 C2.8310625,3.2571 2.8310625,3.589425 3.036075,3.7944375 L4.3693125,5.127675" id="Fill-49"></path>
                <path d="M2.4976875,9.645825 L0.6124125,9.645825 C0.32235,9.645825 0.0874125,9.8807625 0.0874125,10.170825 C0.0874125,10.460625 0.32235,10.695825 0.6124125,10.695825 L2.4976875,10.695825 C2.78775,10.695825 3.0226875,10.460625 3.0226875,10.170825 C3.0226875,9.8807625 2.78775,9.645825 2.4976875,9.645825" id="Fill-50"></path>
                <path d="M4.3693125,15.213975 L3.036075,16.5472125 C2.8310625,16.752225 2.8310625,17.08455 3.036075,17.2895625 C3.1387125,17.3922 3.27285,17.4433875 3.40725,17.4433875 C3.54165,17.4433875 3.6757875,17.3922 3.778425,17.2895625 L5.1116625,15.9565875 C5.316675,15.751575 5.316675,15.4189875 5.1116625,15.213975 C4.90665,15.0089625 4.574325,15.0089625 4.3693125,15.213975" id="Fill-51"></path>
                <path d="M15.9403125,15.213975 C15.7353,15.0089625 15.402975,15.0089625 15.1979625,15.213975 C14.99295,15.4189875 14.99295,15.751575 15.1979625,15.9565875 L16.5312,17.2895625 C16.6338375,17.3922 16.767975,17.4433875 16.902375,17.4433875 C17.036775,17.4433875 17.171175,17.3922 17.27355,17.2895625 C17.4785625,17.08455 17.4785625,16.752225 17.27355,16.5472125 L15.9403125,15.213975" id="Fill-52"></path>
                <path d="M19.697475,9.645825 L17.8119375,9.645825 C17.521875,9.645825 17.2869375,9.8807625 17.2869375,10.170825 C17.2869375,10.460625 17.521875,10.695825 17.8119375,10.695825 L19.697475,10.695825 C19.987275,10.695825 20.222475,10.460625 20.222475,10.170825 C20.222475,9.8807625 19.987275,9.645825 19.697475,9.645825" id="Fill-53"></path>
                <path d="M15.5691375,5.2815 C15.7035375,5.2815 15.837675,5.23005 15.9403125,5.127675 L17.27355,3.7944375 C17.4785625,3.589425 17.4785625,3.2571 17.27355,3.0520875 C17.0685375,2.8468125 16.7362125,2.847075 16.5312,3.0520875 L15.1979625,4.3850625 C14.99295,4.590075 14.99295,4.9226625 15.1979625,5.127675 C15.3006,5.23005 15.4347375,5.2815 15.5691375,5.2815" id="Fill-54"></path>
            </g>
        </g>
    </g>
</svg>